<svg width="98" height="22" viewBox="0 0 98 22" fill="none" xmlns="http://www.w3.org/2000/svg">
<path d="M9.31 17.23C9.78 17.01 10.15 16.71 10.41 16.33C10.67 15.95 10.85 15.52 10.94 15.03C11.04 14.54 11.08 14.03 11.08 13.51V13H14.89V13.52C14.89 15.93 14.26 17.78 13 19.08C11.74 20.38 9.91 21.03 7.5 21.03C5.19 21.03 3.36 20.33 2.01 18.92C0.66 17.51 0 15.46 0 12.76V8.26C0 6.97 0.17 5.81 0.52 4.78C0.87 3.75 1.37 2.88 2.02 2.18C2.67 1.48 3.46 0.94 4.39 0.56C5.32 0.18 6.35 0 7.51 0C8.7 0 9.76 0.17 10.69 0.52C11.61 0.87 12.39 1.37 13.01 2.02C13.64 2.67 14.11 3.46 14.42 4.39C14.74 5.31 14.9 6.35 14.9 7.51V8.03H11.09V7.51C11.09 7.03 11.03 6.55 10.92 6.07C10.8 5.59 10.61 5.16 10.34 4.77C10.07 4.39 9.7 4.07 9.24 3.83C8.78 3.59 8.2 3.47 7.51 3.47C6.87 3.47 6.33 3.59 5.86 3.83C5.4 4.07 5.02 4.39 4.71 4.81C4.4 5.22 4.17 5.7 4.03 6.25C3.89 6.8 3.81 7.37 3.81 7.97V13.05C3.81 13.7 3.88 14.31 4.01 14.85C4.14 15.4 4.36 15.88 4.65 16.28C4.94 16.68 5.32 17 5.79 17.22C6.26 17.44 6.83 17.55 7.51 17.55C8.24 17.56 8.84 17.45 9.31 17.23Z" fill="white"/>
<path d="M31.6799 13.63C31.6799 15.94 31.0699 17.75 29.8499 19.06C28.6299 20.37 26.8099 21.02 24.4099 21.02C22.0099 21.02 20.1899 20.37 18.9699 19.06C17.7499 17.75 17.1399 15.94 17.1399 13.63V0.400024H20.9499V13.63C20.9499 14.82 21.2299 15.76 21.7899 16.43C22.3499 17.1 23.2199 17.44 24.4199 17.44C25.6199 17.44 26.4899 17.1 27.0499 16.43C27.6099 15.76 27.8899 14.82 27.8899 13.63V0.400024H31.6999V13.63H31.6799Z" fill="white"/>
<path d="M40.0901 0.400024C42.5901 0.400024 44.4501 0.980025 45.6601 2.15002C46.8701 3.31002 47.4801 5.12002 47.4801 7.56002V13.45C47.4801 15.89 46.8701 17.7 45.6601 18.86C44.4501 20.02 42.5901 20.61 40.0901 20.61H34.3101V0.400024H40.0901ZM42.8801 16.04C43.4101 15.41 43.6701 14.44 43.6701 13.11V7.57002C43.6701 6.41002 43.4001 5.54002 42.8801 4.94002C42.3501 4.34002 41.4201 4.05002 40.0901 4.05002H38.1301V16.99H40.0901C41.4201 16.98 42.3501 16.67 42.8801 16.04Z" fill="white"/>
<path d="M75.53 20.62V14.56C75.53 14.1 75.41 13.72 75.17 13.43C74.93 13.14 74.53 13 73.97 13H69.58V20.62H65.77V0.400024H73.51C74.55 0.400024 75.46 0.540024 76.25 0.830024C77.04 1.12002 77.7 1.52002 78.23 2.03002C78.76 2.54002 79.16 3.13002 79.44 3.81002C79.72 4.48002 79.86 5.21002 79.86 5.98002V6.67002C79.86 7.50002 79.64 8.27002 79.2 8.99002C78.76 9.71002 78.07 10.27 77.15 10.65V11.17C77.82 11.25 78.36 11.51 78.75 11.95C79.14 12.39 79.34 12.95 79.34 13.63V20.62H75.53ZM73.22 9.36002C74.14 9.36002 74.85 9.14003 75.33 8.71002C75.81 8.28003 76.05 7.67002 76.05 6.88002V6.53002C76.05 5.86002 75.81 5.27002 75.33 4.78002C74.85 4.29002 74.15 4.04002 73.22 4.04002H69.58V9.35003H73.22V9.36002Z" fill="white"/>
<path d="M85.4099 16.29L84.4299 20.62H80.4399L85.2699 0.400024H92.4299L97.2499 20.61H93.2599L92.2799 16.28H85.4099V16.29ZM91.4499 12.65L89.1099 2.31002H88.5899L86.2199 12.65H91.4499Z" fill="white"/>
<path d="M62.74 0.47998V4.10998H53.8V8.71998H62.39V12.35H53.8V17.02H63.09V20.65H49.99V0.47998H62.74Z" fill="white"/>
</svg>
